<svg xmlns="http://www.w3.org/2000/svg" width="47.632" height="37" viewBox="0 0 47.632 37">
  <g id="friends" transform="translate(0 -57.142)">
    <g id="Group_187" data-name="Group 187" transform="translate(5.756 57.142)">
      <g id="Group_186" data-name="Group 186" transform="translate(0 0)">
        <path id="Path_230" data-name="Path 230" d="M70.567,57.142a9.234,9.234,0,1,0,8.694,9.218A8.978,8.978,0,0,0,70.567,57.142Z" transform="translate(-61.873 -57.142)" fill="#6534e2"/>
      </g>
    </g>
    <g id="Group_189" data-name="Group 189" transform="translate(26.759 58.461)">
      <g id="Group_188" data-name="Group 188">
        <path id="Path_231" data-name="Path 231" d="M295.094,71.321h-.059a7.212,7.212,0,0,0-5.291,2.392,8.233,8.233,0,0,0,.092,11.1,7.215,7.215,0,0,0,5.27,2.3h.06a7.213,7.213,0,0,0,5.291-2.392,8.094,8.094,0,0,0,2.107-5.568A7.7,7.7,0,0,0,295.094,71.321Z" transform="translate(-287.637 -71.321)" fill="#6534e2"/>
      </g>
    </g>
    <g id="Group_191" data-name="Group 191" transform="translate(25.115 75.768)">
      <g id="Group_190" data-name="Group 190" transform="translate(0 0)">
        <path id="Path_232" data-name="Path 232" d="M279.429,257.358h-.722a13,13,0,0,0-8.747,3.373,16.785,16.785,0,0,1,6.554,12.453h15.963v-2.779A13.063,13.063,0,0,0,279.429,257.358Z" transform="translate(-269.96 -257.358)" fill="#6534e2"/>
      </g>
    </g>
    <g id="Group_193" data-name="Group 193" transform="translate(0 78.463)">
      <g id="Group_192" data-name="Group 192" transform="translate(0 0)">
        <path id="Path_233" data-name="Path 233" d="M28.872,299.45a14.013,14.013,0,0,0-13.987-13.132h-.869A14.016,14.016,0,0,0,0,300.334V302H28.9v-1.663Q28.9,299.889,28.872,299.45Z" transform="translate(0 -286.318)" fill="#6534e2"/>
      </g>
    </g>
  </g>
</svg>
