<svg xmlns="http://www.w3.org/2000/svg" width="45.42" height="55.923" viewBox="0 0 45.42 55.923">
  <g id="delete_1_" data-name="delete (1)" transform="translate(0.003 0.002)">
    <path id="Path_218" data-name="Path 218" d="M223.708,154.7a1.31,1.31,0,0,0-1.31,1.31v24.753a1.31,1.31,0,1,0,2.619,0V156.013A1.31,1.31,0,0,0,223.708,154.7Zm0,0" transform="translate(-193.274 -134.443)" fill="#fff"/>
    <path id="Path_219" data-name="Path 219" d="M105.708,154.7a1.31,1.31,0,0,0-1.31,1.31v24.753a1.31,1.31,0,1,0,2.619,0V156.013A1.31,1.31,0,0,0,105.708,154.7Zm0,0" transform="translate(-90.728 -134.443)" fill="#fff"/>
    <path id="Path_220" data-name="Path 220" d="M3.716,16.647V48.915A7.226,7.226,0,0,0,5.637,53.9a6.45,6.45,0,0,0,4.68,2.023H35.1a6.448,6.448,0,0,0,4.68-2.023A7.226,7.226,0,0,0,41.7,48.915V16.647a5,5,0,0,0-1.284-9.838H33.708V5.172A5.144,5.144,0,0,0,28.521,0H16.892a5.144,5.144,0,0,0-5.187,5.173V6.809H5a5,5,0,0,0-1.284,9.838ZM35.1,53.3H10.317a4.148,4.148,0,0,1-3.981-4.387V16.763H39.078V48.915A4.148,4.148,0,0,1,35.1,53.3ZM14.325,5.172a2.523,2.523,0,0,1,2.567-2.554H28.521a2.523,2.523,0,0,1,2.567,2.554V6.809H14.325ZM5,9.428H40.413a2.357,2.357,0,1,1,0,4.715H5A2.357,2.357,0,0,1,5,9.428Zm0,0" transform="translate(0 0)" fill="#fff"/>
    <path id="Path_221" data-name="Path 221" d="M164.708,154.7a1.31,1.31,0,0,0-1.31,1.31v24.753a1.31,1.31,0,1,0,2.619,0V156.013A1.31,1.31,0,0,0,164.708,154.7Zm0,0" transform="translate(-142.001 -134.443)" fill="#fff"/>
  </g>
</svg>
